<?xml version="1.0" encoding="utf-8"?>
<!-- Generator: Adobe Illustrator 16.0.0, SVG Export Plug-In . SVG Version: 6.00 Build 0)  -->
<!DOCTYPE svg PUBLIC "-//W3C//DTD SVG 1.1//EN" "http://www.w3.org/Graphics/SVG/1.1/DTD/svg11.dtd">
<svg version="1.1" id="Capa_1" xmlns="http://www.w3.org/2000/svg" xmlns:xlink="http://www.w3.org/1999/xlink" x="0px" y="0px"
	 width="595.28px" height="841.89px" viewBox="0 0 595.28 841.89" enable-background="new 0 0 595.28 841.89" xml:space="preserve">
<g>
	<path fill-rule="evenodd" clip-rule="evenodd" fill="#FFFFFF" d="M276.584,353.491c56,0,112,0,168,0c0,55.76,0,111.52,0,167.279
		c-56,0-112,0-168,0C276.584,465.01,276.584,409.25,276.584,353.491z M289.14,398.881c-0.286,0.506-0.514,0.873-0.706,1.256
		c-6.809,13.598-9.802,27.956-8.693,43.157c0.78,10.696,3.504,20.861,8.33,30.422c7.913,15.676,19.651,27.675,35.168,35.908
		c10.678,5.666,22.099,8.697,34.174,9.285c0.851,0.041,1.041-0.306,1.034-1.036c-0.019-1.839-0.061-3.682,0.018-5.519
		c0.044-1.046-0.285-1.65-1.228-2.182c-4.943-2.786-9.834-5.665-14.764-8.477c-0.675-0.386-0.951-0.813-0.947-1.602
		c0.03-5.72,0.032-11.439-0.005-17.16c-0.005-0.809,0.28-1.202,0.985-1.543c2.678-1.296,4.666-3.326,6.066-5.939
		c2.597-4.846,2.825-10.053,1.991-15.297c-1.328-8.358-5.074-15.607-10.842-21.776c-4.144-4.432-8.975-7.815-15.041-9.104
		c-7.234-1.537-13.367,1.566-16.332,8.336c-1.959,4.468-2.051,9.159-1.322,13.89c1.069,6.946,3.979,13.098,8.168,18.698
		c0.48,0.643,0.791,1.571,0.807,2.375c0.079,4.078,0.037,8.159,0.031,12.238c-0.001,0.415-0.047,0.829-0.083,1.439
		c-0.61-0.303-1.04-0.487-1.444-0.72c-5.678-3.276-11.338-6.584-17.04-9.817c-1.007-0.571-1.33-1.223-1.328-2.364
		c0.035-22.919,0.026-45.84,0.026-68.759c0-0.36,0.052-0.731-0.021-1.076c-0.06-0.285-0.2-0.655-0.423-0.789
		C293.572,401.438,291.397,400.191,289.14,398.881z M425.982,450.1c0.09,0.268,0.157,0.373,0.157,0.479
		c0.01,7.879,0.026,15.759-0.016,23.639c-0.002,0.387-0.436,0.918-0.811,1.136c-9.503,5.522-19.025,11.01-28.543,16.507
		c-10.625,6.136-21.251,12.271-31.867,18.424c-0.345,0.2-0.831,0.57-0.839,0.871c-0.066,2.588-0.038,5.178-0.038,7.766
		c23.573-0.2,54.391-13.427,70.299-44.896c8.062-15.947,10.465-32.836,7.571-50.456c-1.432-8.72-4.293-16.965-8.527-24.796
		c-2.122,1.221-4.073,2.394-6.076,3.471c-0.834,0.449-1.167,0.958-1.159,1.947c0.051,6.799,0.01,13.6,0.048,20.398
		c0.005,0.844-0.29,1.29-0.992,1.683c-3.906,2.186-7.798,4.398-11.679,6.628c-0.613,0.352-0.968,0.343-1.517-0.218
		c-2.645-2.699-5.911-4.01-9.688-4.03c-4.652-0.025-8.806,1.585-12.537,4.193c-9.529,6.662-15.137,15.875-17.099,27.271
		c-0.816,4.746-0.611,9.504,1.407,14c2.461,5.481,6.727,8.447,12.748,8.57c3.88,0.078,7.479-1.171,10.796-3.15
		c8.639-5.156,14.043-12.854,17.385-22.178c0.218-0.608,0.699-1.254,1.239-1.592c2.064-1.292,4.204-2.465,6.315-3.684
		C423.687,451.433,424.81,450.78,425.982,450.1z M430.805,393.906c-17.651-25.727-41.629-39.472-72.916-38.321
		c-28.497,1.048-50.236,14.719-66.17,38.322c2.187,1.266,4.153,2.326,6.031,3.525c0.969,0.619,1.693,0.607,2.692,0.018
		c5.714-3.371,11.467-6.675,17.236-9.949c0.415-0.235,1.183-0.259,1.591-0.031c3.626,2.03,7.202,4.149,10.809,6.213
		c0.616,0.353,0.791,0.692,0.61,1.431c-0.928,3.799-0.324,7.378,1.771,10.687c2.885,4.556,7.161,7.35,12.047,9.277
		c7.13,2.813,14.53,3.379,22.045,2.125c6.213-1.037,11.931-3.289,16.644-7.655c6.609-6.123,7.049-14.586,1.078-21.216
		c-2.226-2.471-4.922-4.331-7.926-5.714c-8.397-3.867-17.136-4.502-26.133-2.696c-0.629,0.126-1.432-0.001-1.999-0.301
		c-2.437-1.29-4.815-2.687-7.212-4.051c-0.395-0.224-0.77-0.481-1.255-0.786c0.318-0.217,0.475-0.338,0.644-0.436
		c6.677-3.863,13.362-7.711,20.023-11.601c0.734-0.429,1.237-0.208,1.855,0.15c12.419,7.184,24.845,14.355,37.269,21.531
		c7.578,4.377,15.151,8.765,22.742,13.123c0.436,0.25,1.146,0.533,1.491,0.35C426.063,396.69,428.287,395.356,430.805,393.906z"/>
	<path fill-rule="evenodd" clip-rule="evenodd" d="M289.14,398.881c2.257,1.311,4.432,2.557,6.581,3.846
		c0.223,0.134,0.363,0.504,0.423,0.789c0.073,0.345,0.021,0.716,0.021,1.076c0,22.919,0.008,45.84-0.026,68.759
		c-0.002,1.142,0.321,1.793,1.328,2.364c5.702,3.233,11.362,6.541,17.04,9.817c0.404,0.232,0.834,0.417,1.444,0.72
		c0.036-0.61,0.082-1.024,0.083-1.439c0.006-4.079,0.048-8.16-0.031-12.238c-0.016-0.804-0.326-1.732-0.807-2.375
		c-4.189-5.601-7.099-11.752-8.168-18.698c-0.729-4.73-0.637-9.422,1.322-13.89c2.965-6.77,9.098-9.873,16.332-8.336
		c6.066,1.288,10.897,4.672,15.041,9.104c5.768,6.169,9.514,13.418,10.842,21.776c0.834,5.244,0.605,10.451-1.991,15.297
		c-1.4,2.613-3.389,4.644-6.066,5.939c-0.705,0.341-0.99,0.734-0.985,1.543c0.037,5.721,0.035,11.44,0.005,17.16
		c-0.004,0.789,0.272,1.216,0.947,1.602c4.93,2.812,9.82,5.69,14.764,8.477c0.942,0.531,1.271,1.136,1.228,2.182
		c-0.078,1.837-0.036,3.68-0.018,5.519c0.007,0.73-0.184,1.077-1.034,1.036c-12.075-0.588-23.496-3.619-34.174-9.285
		c-15.517-8.233-27.255-20.232-35.168-35.908c-4.826-9.561-7.55-19.726-8.33-30.422c-1.109-15.201,1.884-29.56,8.693-43.157
		C288.626,399.753,288.854,399.387,289.14,398.881z"/>
	<path fill-rule="evenodd" clip-rule="evenodd" d="M425.982,450.1c-1.173,0.68-2.296,1.333-3.421,1.983
		c-2.111,1.219-4.251,2.392-6.315,3.684c-0.54,0.338-1.021,0.983-1.239,1.592c-3.342,9.324-8.746,17.021-17.385,22.178
		c-3.317,1.979-6.916,3.229-10.796,3.15c-6.021-0.123-10.287-3.089-12.748-8.57c-2.019-4.496-2.224-9.254-1.407-14
		c1.962-11.396,7.569-20.609,17.099-27.271c3.731-2.608,7.885-4.219,12.537-4.193c3.776,0.021,7.043,1.331,9.688,4.03
		c0.549,0.561,0.903,0.569,1.517,0.218c3.881-2.229,7.772-4.442,11.679-6.628c0.702-0.393,0.997-0.839,0.992-1.683
		c-0.038-6.799,0.003-13.599-0.048-20.398c-0.008-0.989,0.325-1.498,1.159-1.947c2.003-1.077,3.954-2.25,6.076-3.471
		c4.234,7.832,7.096,16.076,8.527,24.796c2.894,17.62,0.49,34.509-7.571,50.456c-15.908,31.469-46.726,44.695-70.299,44.896
		c0-2.588-0.028-5.178,0.038-7.766c0.008-0.301,0.494-0.671,0.839-0.871c10.616-6.152,21.242-12.288,31.867-18.424
		c9.518-5.497,19.04-10.984,28.543-16.507c0.375-0.218,0.809-0.749,0.811-1.136c0.042-7.88,0.025-15.76,0.016-23.639
		C426.14,450.473,426.072,450.368,425.982,450.1z"/>
	<path fill-rule="evenodd" clip-rule="evenodd" d="M430.805,393.906c-2.518,1.45-4.741,2.784-7.031,3.994
		c-0.345,0.183-1.056-0.1-1.491-0.35c-7.591-4.357-15.164-8.745-22.742-13.123c-12.424-7.176-24.85-14.347-37.269-21.531
		c-0.618-0.357-1.121-0.579-1.855-0.15c-6.661,3.89-13.347,7.738-20.023,11.601c-0.169,0.098-0.325,0.219-0.644,0.436
		c0.485,0.305,0.86,0.562,1.255,0.786c2.396,1.364,4.775,2.761,7.212,4.051c0.567,0.3,1.37,0.427,1.999,0.301
		c8.997-1.806,17.735-1.171,26.133,2.696c3.004,1.383,5.7,3.243,7.926,5.714c5.971,6.63,5.531,15.093-1.078,21.216
		c-4.713,4.366-10.431,6.618-16.644,7.655c-7.515,1.254-14.915,0.688-22.045-2.125c-4.886-1.928-9.162-4.722-12.047-9.277
		c-2.096-3.309-2.699-6.888-1.771-10.687c0.181-0.738,0.006-1.078-0.61-1.431c-3.606-2.064-7.183-4.184-10.809-6.213
		c-0.408-0.229-1.176-0.205-1.591,0.031c-5.77,3.274-11.522,6.578-17.236,9.949c-0.999,0.59-1.724,0.601-2.692-0.018
		c-1.878-1.199-3.845-2.259-6.031-3.525c15.934-23.603,37.673-37.274,66.17-38.322C389.176,354.434,413.153,368.179,430.805,393.906
		z"/>
</g>
</svg>
